<svg width="21" height="21" viewBox="0 0 21 21" fill="none" xmlns="http://www.w3.org/2000/svg">
<path d="M7.4055 5.9959L10.6632 4.09961L13.921 5.9959L12.7233 6.69644L10.6632 5.50069L8.60319 6.69644L7.4055 5.9959ZM13.921 8.3874L12.7233 7.68685L10.6632 8.8826L8.60319 7.68685L7.4055 8.3874V9.78847L9.46552 10.9842V13.3757L10.6632 14.0762L11.8609 13.3757V10.9842L13.921 9.78847V8.3874ZM13.921 12.18V10.7789L12.7233 11.4794V12.8805L13.921 12.18ZM14.7713 12.6752L12.7113 13.8709V15.272L15.969 13.3757V9.58314L14.7713 10.2837V12.6752ZM13.5736 7.19165L14.7713 7.89219V9.29327L15.969 8.59273V7.19165L14.7713 6.49111L13.5736 7.19165ZM9.46552 14.3782V15.7793L10.6632 16.4798L11.8609 15.7793V14.3782L10.6632 15.0787L9.46552 14.3782ZM7.4055 12.18L8.60319 12.8805V11.4794L7.4055 10.7789V12.18ZM9.46552 7.19165L10.6632 7.89219L11.8609 7.19165L10.6632 6.49111L9.46552 7.19165ZM6.55512 7.89219L7.75281 7.19165L6.55512 6.49111L5.35742 7.19165V8.59273L6.55512 9.29327V7.89219ZM6.55512 10.2837L5.35742 9.58314V13.3757L8.61514 15.272V13.8709L6.55512 12.6752V10.2837Z" fill="#3498DB"/>
<path opacity="0.5" d="M13.3508 19.4909C12.914 19.6878 12.4524 19.8657 11.9878 20.0217" stroke="#BDC5D1" stroke-miterlimit="10" stroke-linecap="round" stroke-linejoin="round"/>
<path opacity="0.5" d="M18.3662 15.3229C17.6599 16.3004 16.8308 17.1801 15.8998 17.9395" stroke="#3498DB" stroke-miterlimit="10" stroke-linecap="round" stroke-linejoin="round"/>
<path opacity="0.5" d="M19.7579 12.7698C19.6272 13.1024 19.4748 13.438 19.3193 13.7517" stroke="#BDC5D1" stroke-miterlimit="10" stroke-linecap="round" stroke-linejoin="round"/>
<path opacity="0.5" d="M19.2422 5.03271C18.5359 4.05517 17.7068 3.1755 16.7758 2.41607" stroke="#DEE2E8" stroke-miterlimit="10" stroke-linecap="round" stroke-linejoin="round"/>
<path opacity="0.5" d="M2.33203 15.5186C3.03828 16.4961 3.86745 17.3758 4.79845 18.1352" stroke="#DEE2E8" stroke-miterlimit="10" stroke-linecap="round" stroke-linejoin="round"/>
<path opacity="0.5" d="M7.53006 1.53103C7.96691 1.33419 8.42847 1.15624 8.89307 1.00028" stroke="#BDC5D1" stroke-miterlimit="10" stroke-linecap="round" stroke-linejoin="round"/>
<path opacity="0.5" d="M2.51661 5.69908C3.22287 4.72153 4.05203 3.84186 4.98304 3.08243" stroke="#3498DB" stroke-miterlimit="10" stroke-linecap="round" stroke-linejoin="round"/>
<path opacity="0.5" d="M1.12488 8.2522C1.25562 7.91961 1.40802 7.58392 1.56348 7.27023" stroke="#BDC5D1" stroke-miterlimit="10" stroke-linecap="round" stroke-linejoin="round"/>
</svg>
