<svg width="96" height="96" viewBox="0 0 96 96" fill="none" xmlns="http://www.w3.org/2000/svg">
<g clip-path="url(#clip0_269_822)">
<path d="M24.0543 16.7854L47.9999 3L71.9457 16.7854L63.1421 21.8781L47.9999 13.1854L32.8579 21.8781L24.0543 16.7854ZM71.9457 34.1708L63.1421 29.0781L47.9999 37.7708L32.8579 29.0781L24.0543 34.1708V44.3562L39.1963 53.0489V70.4341L47.9999 75.5268L56.8035 70.4341V53.0489L71.9457 44.3562V34.1708ZM71.9457 61.7414V51.5562L63.1421 56.6488V66.8341L71.9457 61.7414ZM78.1964 65.3414L63.0542 74.0341V84.2195L87 70.4341V42.8635L78.1964 47.9562V65.3414ZM69.3927 25.4781L78.1964 30.5708V40.7562L87 35.6635V25.4781L78.1964 20.3854L69.3927 25.4781ZM39.1963 77.7219V87.9073L47.9999 93L56.8035 87.9073V77.7219L47.9999 82.8146L39.1963 77.7219ZM24.0543 61.7414L32.8579 66.8341V56.6488L24.0543 51.5562V61.7414ZM39.1963 25.4781L47.9999 30.5708L56.8035 25.4781L47.9999 20.3854L39.1963 25.4781ZM17.8036 30.5708L26.6072 25.4781L17.8036 20.3854L9 25.4781V35.6635L17.8036 40.7562V30.5708ZM17.8036 47.9562L9 42.8635V70.4341L32.9457 84.2195V74.0341L17.8036 65.3414V47.9562Z" fill="#F1B90C"/>
</g>
<defs>
<clipPath id="clip0_269_822">
<rect width="96" height="96" fill="white"/>
</clipPath>
</defs>
</svg>
